<?xml version="1.0" encoding="UTF-8"?>
<svg version="1.1" xmlns="http://www.w3.org/2000/svg" width="677" height="369">
<path d="M0 0 C7.99823647 0.26716447 16.3323527 2.54112862 22.0625 8.3125 C30.1770867 17.93716316 31.28638876 26.05811206 32.0625 38.3125 C33.13628906 38.26609375 34.21007812 38.2196875 35.31640625 38.171875 C49.87089488 37.72456989 49.87089488 37.72456989 55.0625 42.3125 C58.43664649 47.63954563 58.97062578 53.0296157 59.7109375 59.15625 C59.84871109 60.22228958 59.98648468 61.28832916 60.12843323 62.38667297 C60.57507874 65.86072387 61.00646352 69.33648102 61.4375 72.8125 C61.74189747 75.20675456 62.04732408 77.6008785 62.35375977 79.99487305 C62.96929291 84.81032107 63.5796922 89.62638084 64.18701172 94.44287109 C64.97062118 100.62891574 65.79017262 106.80949561 66.62890625 112.98828125 C66.86475277 114.7343741 67.10059284 116.48046782 67.33642578 118.2265625 C67.66390799 120.64891957 67.99258393 123.07107608 68.32562256 125.49267578 C68.62687674 127.6885048 68.9215747 129.88512365 69.21484375 132.08203125 C69.37976318 133.29479736 69.54468262 134.50756348 69.71459961 135.75708008 C70.346886 142.21882518 70.85423246 147.69027601 67.0625 153.3125 C63.27560961 156.10143083 60.54120289 156.69970539 55.87841797 156.76074219 C54.6402533 156.78371872 53.40208862 156.80669525 52.12640381 156.83036804 C50.76916829 156.8404826 49.41192928 156.85013754 48.0546875 156.859375 C46.63005044 156.87923446 45.20542842 156.90019939 43.78082275 156.92219543 C39.95758036 156.97685771 36.13439451 157.01189387 32.3108902 157.04216385 C29.94121904 157.06246813 27.57167962 157.08844849 25.2020874 157.11642456 C-2.85891322 157.44596589 -30.88592128 157.15830516 -58.9375 156.3125 C-57.5625 154.3125 -57.5625 154.3125 -55.9375 152.3125 C-55.2775 152.3125 -54.6175 152.3125 -53.9375 152.3125 C-53.5353125 151.3534375 -53.5353125 151.3534375 -53.125 150.375 C-51.9375 148.3125 -51.9375 148.3125 -48.9375 147.3125 C-47.89776816 145.17923164 -47.89776816 145.17923164 -46.9375 142.3125 C-46.27789144 140.85096071 -45.61055793 139.39289465 -44.9375 137.9375 C-40.60763512 128.16713575 -40.01905396 118.6925246 -39.5078125 108.13671875 C-39.47131088 107.39950089 -39.43480927 106.66228302 -39.39720154 105.90272522 C-39.24614403 102.83456889 -39.09549954 99.76654833 -38.96337891 96.69750977 C-38.40504782 83.92806925 -36.81977159 72.10047913 -31.875 60.1875 C-31.61912109 59.55585938 -31.36324219 58.92421875 -31.09960938 58.2734375 C-29.91178177 55.39089442 -28.67402632 52.91728948 -26.9375 50.3125 C-25.0625 50.5625 -25.0625 50.5625 -22.9375 51.3125 C-22.2537955 52.63717746 -21.58785814 53.97113633 -20.9375 55.3125 C-18.93733534 56.52132096 -18.93733534 56.52132096 -16.9375 57.3125 C-15.9375 58.3125 -15.9375 58.3125 -15.82397461 60.90454102 C-15.82921143 62.03045654 -15.83444824 63.15637207 -15.83984375 64.31640625 C-15.84306641 65.53134766 -15.84628906 66.74628906 -15.84960938 67.99804688 C-15.86217773 69.91713867 -15.86217773 69.91713867 -15.875 71.875 C-15.87951172 73.15826172 -15.88402344 74.44152344 -15.88867188 75.76367188 C-15.90050455 78.94666022 -15.91698932 82.12955762 -15.9375 85.3125 C-9.17536336 85.01775544 -4.74392284 84.07202336 1 80.5 C4.46108625 78.54484641 7.11195579 77.21400416 11.19140625 77.63671875 C13.98833878 78.660358 16.48356722 79.82699987 19.0625 81.3125 C25.51557528 84.94235484 27.2241009 84.50900917 36.0625 85.3125 C36.0625 74.0925 36.0625 62.8725 36.0625 51.3125 C34.0825 50.8175 34.0825 50.8175 32.0625 50.3125 C32.18109375 51.13234375 32.2996875 51.9521875 32.421875 52.796875 C32.55078125 53.87453125 32.6796875 54.9521875 32.8125 56.0625 C33.02132812 57.66351563 33.02132812 57.66351563 33.234375 59.296875 C33.0625 62.3125 33.0625 62.3125 31.296875 64.66796875 C29.0625 66.3125 29.0625 66.3125 25.5625 66.875 C22.0625 66.3125 22.0625 66.3125 19.5 64.4375 C18.0625 61.3125 18.0625 61.3125 20.0625 51.3125 C10.4925 50.9825 0.9225 50.6525 -8.9375 50.3125 C-9.95277342 46.25140631 -9.99180484 45.64283162 -8.5 42.0625 C-8.06880859 41.00289062 -8.06880859 41.00289062 -7.62890625 39.921875 C-7.40074219 39.39078125 -7.17257812 38.8596875 -6.9375 38.3125 C-3.56261542 38.14344103 -0.18757637 37.97768231 3.1875 37.8125 C4.13882813 37.76480469 5.09015625 37.71710938 6.0703125 37.66796875 C10.73936809 37.44100077 15.38613704 37.24951868 20.0625 37.3125 C19.91987809 29.533123 19.43712387 23.26041709 14.0625 17.3125 C9.12023334 13.45753201 5.57418883 12.17706837 -0.625 12.25 C-1.61886719 12.25902344 -2.61273438 12.26804687 -3.63671875 12.27734375 C-4.39597656 12.28894531 -5.15523438 12.30054687 -5.9375 12.3125 C-5.82351335 10.68669034 -5.69594341 9.06182843 -5.5625 7.4375 C-5.49289062 6.53257813 -5.42328125 5.62765625 -5.3515625 4.6953125 C-4.71375871 1.02493218 -3.65294114 0.38861076 0 0 Z M-3.9375 93.3125 C-3.9375 96.9425 -3.9375 100.5725 -3.9375 104.3125 C-2.65875 104.9725 -1.38 105.6325 -0.0625 106.3125 C0.65679687 106.68375 1.37609375 107.055 2.1171875 107.4375 C4.01098977 108.44923746 4.01098977 108.44923746 6.0625 108.3125 C6.0625 104.6825 6.0625 101.0525 6.0625 97.3125 C4.78375 96.6525 3.505 95.9925 2.1875 95.3125 C1.46820313 94.94125 0.74890625 94.57 0.0078125 94.1875 C-1.88598977 93.17576254 -1.88598977 93.17576254 -3.9375 93.3125 Z M20.0625 93.3125 C19.815 94.26125 19.5675 95.21 19.3125 96.1875 C18.0625 99.3125 18.0625 99.3125 15.9375 100.6875 C15.009375 100.996875 15.009375 100.996875 14.0625 101.3125 C13.7325 99.9925 13.4025 98.6725 13.0625 97.3125 C11.80300951 98.34656673 11.80300951 98.34656673 11.96484375 100.59765625 C11.97644531 101.51417969 11.98804688 102.43070313 12 103.375 C12.00902344 104.29410156 12.01804687 105.21320313 12.02734375 106.16015625 C12.03894531 106.87042969 12.05054688 107.58070313 12.0625 108.3125 C15.46562738 107.25374926 18.07603231 106.30347846 21.0625 104.3125 C21.42710453 101.64596095 21.42710453 101.64596095 21.25 98.6875 C21.22292969 97.68460937 21.19585937 96.68171875 21.16796875 95.6484375 C21.13316406 94.87757813 21.09835937 94.10671875 21.0625 93.3125 C20.7325 93.3125 20.4025 93.3125 20.0625 93.3125 Z M-15.9375 109.3125 C-15.9375 121.1925 -15.9375 133.0725 -15.9375 145.3125 C-9.17442336 145.38135485 -2.41256189 145.4410948 4.35058594 145.47729492 C6.6514091 145.49238495 8.95220349 145.51285927 11.25292969 145.53881836 C14.55931702 145.57519147 17.86532416 145.59222432 21.171875 145.60546875 C22.7158194 145.62869453 22.7158194 145.62869453 24.29095459 145.65238953 C25.25164856 145.65261612 26.21234253 145.65284271 27.20214844 145.65307617 C28.04598083 145.65973801 28.88981323 145.66639984 29.75921631 145.67326355 C32.63239773 145.22323686 33.99462794 144.33807202 36.0625 142.3125 C36.41919893 139.66544872 36.53026797 137.44014324 36.453125 134.80078125 C36.44463531 133.70844429 36.44463531 133.70844429 36.43597412 132.59403992 C36.41360029 130.27035502 36.36340669 127.94821793 36.3125 125.625 C36.29243609 124.04885041 36.27418512 122.47267663 36.2578125 120.89648438 C36.21373283 117.03456076 36.14470225 113.1737927 36.0625 109.3125 C25.49990091 108.76432768 25.49990091 108.76432768 16.125 112.9375 C10.78787508 116.45959761 10.78787508 116.45959761 6.98046875 115.6875 C3.5466378 114.06941634 0.28550537 112.26005078 -2.984375 110.3359375 C-6.99137199 108.76674341 -6.99137199 108.76674341 -15.9375 109.3125 Z " fill="#AF3804" transform="translate(364.9375,78.6875)"/>
<path d="M0 0 C-0.54029836 8.70524754 -1.78719915 17.12806788 -3.4375 25.6875 C-3.65470703 26.84572266 -3.87191406 28.00394531 -4.09570312 29.19726562 C-4.51997105 31.4409167 -4.95237517 33.68304902 -5.39404297 35.92333984 C-5.77918696 37.87885338 -6.14970887 39.83734727 -6.50048828 41.79931641 C-6.89972416 43.8879765 -7.43540332 45.94984858 -8 48 C-9.485 48.495 -9.485 48.495 -11 49 C-11.38671875 48.50628906 -11.7734375 48.01257813 -12.171875 47.50390625 C-12.95304687 46.54291016 -12.95304687 46.54291016 -13.75 45.5625 C-14.26046875 44.92441406 -14.7709375 44.28632812 -15.296875 43.62890625 C-17.19667629 41.81189446 -18.43586908 41.39576803 -21 41 C-33.48460398 62.64339133 -37.20738279 84.30257119 -37.62182617 109.04125977 C-37.89264262 122.38158307 -39.40454496 135.20036606 -49.1796875 145.23828125 C-62.06702011 155.65071089 -75.16784322 155.98090421 -91.1171875 154.76171875 C-100.42223006 153.29015451 -109.36491554 147.54791129 -115 140 C-115.73120117 138.10229492 -115.73120117 138.10229492 -116 136 C-115.05957031 134.30834961 -115.05957031 134.30834961 -113.578125 132.65234375 C-113.04703125 132.04712891 -112.5159375 131.44191406 -111.96875 130.81835938 C-111.4015625 130.19767578 -110.834375 129.57699219 -110.25 128.9375 C-109.69828125 128.31294922 -109.1465625 127.68839844 -108.578125 127.04492188 C-107.06934342 125.34572916 -105.55041408 123.6612692 -104 122 C-103.2589502 121.15804077 -103.2589502 121.15804077 -102.50292969 120.29907227 C-101 119 -101 119 -98 119 C-96.77603921 120.45552094 -95.55609815 121.91493466 -94.37109375 123.40234375 C-91.08843449 127.22743673 -87.53478336 129.14451093 -82.625 129.9375 C-77.98128152 130.24342064 -73.88545224 129.69696097 -70 127 C-67.17120727 121.98117419 -65.89418782 117.12916736 -65.859375 111.4140625 C-65.65347535 99.52832258 -64.63096447 87.96760475 -62.6875 76.25 C-62.48672852 75.01459473 -62.28595703 73.77918945 -62.07910156 72.50634766 C-60.21453759 61.80317231 -57.03227256 51.79296707 -52.625 41.875 C-52.32827393 41.20194824 -52.03154785 40.52889648 -51.72583008 39.83544922 C-45.91027617 26.91027617 -45.91027617 26.91027617 -41 22 C-41.29486272 18.41004643 -42.91752846 16.80300159 -45.5 14.4375 C-47.96883952 12.16596528 -48.91440014 11.25679957 -50 8 C-48.17706607 6.17706607 -45.32853087 6.28661449 -42.8671875 5.87890625 C-41.58457031 5.66556641 -40.30195313 5.45222656 -38.98046875 5.23242188 C-38.30419434 5.12212646 -37.62791992 5.01183105 -36.93115234 4.89819336 C-34.93118028 4.57167215 -32.9323657 4.23808585 -30.93359375 3.90429688 C-7.2733202 0 -7.2733202 0 0 0 Z " fill="#A73202" transform="translate(358,80)"/>
<path d="M0 0 C7.99823647 0.26716447 16.3323527 2.54112862 22.0625 8.3125 C30.23187878 18.00215173 31.22072866 25.96652039 32.0625 38.3125 C37.3425 38.3125 42.6225 38.3125 48.0625 38.3125 C48.0625 38.6425 48.0625 38.9725 48.0625 39.3125 C43.4425 39.3125 38.8225 39.3125 34.0625 39.3125 C34.0625 42.9425 34.0625 46.5725 34.0625 50.3125 C33.4025 50.3125 32.7425 50.3125 32.0625 50.3125 C32.18109375 51.13234375 32.2996875 51.9521875 32.421875 52.796875 C32.55078125 53.87453125 32.6796875 54.9521875 32.8125 56.0625 C32.95171875 57.12984375 33.0909375 58.1971875 33.234375 59.296875 C33.0625 62.3125 33.0625 62.3125 31.296875 64.66796875 C29.0625 66.3125 29.0625 66.3125 25.5625 66.875 C22.0625 66.3125 22.0625 66.3125 19.5 64.4375 C18.0625 61.3125 18.0625 61.3125 20.0625 51.3125 C10.4925 50.9825 0.9225 50.6525 -8.9375 50.3125 C-9.95277342 46.25140631 -9.99180484 45.64283162 -8.5 42.0625 C-8.21253906 41.35609375 -7.92507813 40.6496875 -7.62890625 39.921875 C-7.40074219 39.39078125 -7.17257812 38.8596875 -6.9375 38.3125 C-3.56261542 38.14344103 -0.18757637 37.97768231 3.1875 37.8125 C4.13882812 37.76480469 5.09015625 37.71710938 6.0703125 37.66796875 C10.73936809 37.44100077 15.38613704 37.24951868 20.0625 37.3125 C19.91987809 29.533123 19.43712387 23.26041709 14.0625 17.3125 C9.12023334 13.45753201 5.57418883 12.17706837 -0.625 12.25 C-1.61886719 12.25902344 -2.61273438 12.26804687 -3.63671875 12.27734375 C-4.39597656 12.28894531 -5.15523438 12.30054687 -5.9375 12.3125 C-5.82351335 10.68669034 -5.69594341 9.06182843 -5.5625 7.4375 C-5.49289062 6.53257813 -5.42328125 5.62765625 -5.3515625 4.6953125 C-4.71375871 1.02493218 -3.65294114 0.38861076 0 0 Z " fill="#C24608" transform="translate(364.9375,78.6875)"/>
<path d="M0 0 C1.875 0.25 1.875 0.25 4 1 C4.6837045 2.32467746 5.34964186 3.65863633 6 5 C7.32 5.66 8.64 6.32 10 7 C10 16.9 10 26.8 10 37 C13.63 37 17.26 37 21 37 C21.99 37.66 22.98 38.32 24 39 C22.82826123 41.69499918 22.1649181 43.09158878 20 45 C17.06339754 45.79847197 14.18203717 46.14941379 11.1640625 46.53125 C2.69364491 47.78612668 -2.74681 51.03535221 -8.40625 57.390625 C-8.9321875 57.92171875 -9.458125 58.4528125 -10 59 C-10.66 59 -11.32 59 -12 59 C-12.50808753 38.28131947 -10.97859987 18.13132403 0 0 Z " fill="#C44402" transform="translate(338,129)"/>
<path d="M0 0 C0.33 0 0.66 0 1 0 C1 8.91 1 17.82 1 27 C10.50142031 26.16553845 10.50142031 26.16553845 17.9375 22.1875 C21.3440955 20.2743976 24.01376659 18.90570895 28.0234375 19.2890625 C30.84311701 20.32373481 33.36865697 21.55557776 36 23 C37.72412057 23.76152847 39.45299489 24.51243007 41.1875 25.25 C42.46010055 25.82946785 43.7316697 26.41124421 45 27 C44.01 27.66 43.02 28.32 42 29 C40.07899377 32.73093387 39.64903945 36.15623505 39.375 40.3125 C39.30023438 41.38113281 39.22546875 42.44976562 39.1484375 43.55078125 C39.09945312 44.35902344 39.05046875 45.16726562 39 46 C38.67 46 38.34 46 38 46 C37.505 43.03 37.505 43.03 37 40 C36.38125 40.495 35.7625 40.99 35.125 41.5 C33 43 33 43 31 43 C30.67 42.01 30.34 41.02 30 40 C29.67 43.3 29.34 46.6 29 50 C30.98 49.505 30.98 49.505 33 49 C33 49.33 33 49.66 33 50 C34.65 50.33 36.3 50.66 38 51 C38 51.66 38 52.32 38 53 C28.26900179 59.12948998 28.26900179 59.12948998 23.9375 58.6875 C22.968125 58.130625 21.99875 57.57375 21 57 C14.87978385 53.71648845 9.99335512 51.38851973 3 51 C3 50.67 3 50.34 3 50 C6.465 49.505 6.465 49.505 10 49 C9.34 48.34 8.68 47.68 8 47 C8.66 47 9.32 47 10 47 C9.94779297 45.77023438 9.94779297 45.77023438 9.89453125 44.515625 C9.86746094 43.43796875 9.84039062 42.3603125 9.8125 41.25 C9.77769531 40.18265625 9.74289062 39.1153125 9.70703125 38.015625 C10.02917214 34.69972145 10.77148914 33.40983327 13 31 C9.71110958 29.35555479 6.06675313 29.6009589 2.43359375 29.37890625 C1.22896484 29.19134766 1.22896484 29.19134766 0 29 C-3.70928823 21.58142354 -0.62594118 8.18194544 0 0 Z M13 35 C13 38.63 13 42.26 13 46 C14.27875 46.66 15.5575 47.32 16.875 48 C17.59429687 48.37125 18.31359375 48.7425 19.0546875 49.125 C20.94848977 50.13673746 20.94848977 50.13673746 23 50 C23 46.37 23 42.74 23 39 C21.72125 38.34 20.4425 37.68 19.125 37 C18.40570313 36.62875 17.68640625 36.2575 16.9453125 35.875 C15.05151023 34.86326254 15.05151023 34.86326254 13 35 Z " fill="#A94317" transform="translate(348,137)"/>
<path d="M0 0 C11.88 0 23.76 0 36 0 C35.33547241 3.32263797 34.67755596 6.22305404 33.625 9.390625 C33.36203125 10.18210937 33.0990625 10.97359375 32.828125 11.7890625 C32.55484375 12.60117188 32.2815625 13.41328125 32 14.25 C31.72671875 15.07757813 31.4534375 15.90515625 31.171875 16.7578125 C30.90890625 17.54414063 30.6459375 18.33046875 30.375 19.140625 C30.01535156 20.21618652 30.01535156 20.21618652 29.6484375 21.31347656 C29 23 29 23 28 24 C25.92737924 24.08767112 23.85179706 24.10695873 21.77734375 24.09765625 C20.51728516 24.09443359 19.25722656 24.09121094 17.95898438 24.08789062 C16.61848891 24.07953403 15.27799412 24.07106907 13.9375 24.0625 C12.59310058 24.0574866 11.2486994 24.05292342 9.90429688 24.04882812 C6.60284567 24.03699497 3.3014174 24.01905886 0 24 C0 16.08 0 8.16 0 0 Z " fill="#C44403" transform="translate(265,117)"/>
<path d="M0 0 C0.99 0 1.98 0 3 0 C2.34 1.98 1.68 3.96 1 6 C1.66 6 2.32 6 3 6 C2.67 7.65 2.34 9.3 2 11 C0.02 11 -1.96 11 -4 11 C-4 13.97 -4 16.94 -4 20 C-2.81462646 19.92563721 -1.62925293 19.85127441 -0.40795898 19.7746582 C12.56188405 19.04942065 25.4802479 18.95232343 38.46484375 19.04296875 C40.21806764 19.05344878 41.97129235 19.06379321 43.72451782 19.07400513 C50.97656848 19.11851912 58.22846371 19.16720312 65.48022461 19.24682617 C69.97415468 19.29544923 74.46784871 19.32435343 78.96200752 19.34057045 C80.65522669 19.35040389 82.34842122 19.36751518 84.04148674 19.39235497 C96.11015439 19.71818782 96.11015439 19.71818782 107 15 C107.495 16.98 107.495 16.98 108 19 C104.13891998 21.68912474 101.49807741 22.38695177 96.81591797 22.44824219 C95.5777533 22.47121872 94.33958862 22.49419525 93.06390381 22.51786804 C91.70666829 22.5279826 90.34942928 22.53763754 88.9921875 22.546875 C87.56755044 22.56673446 86.14292842 22.58769939 84.71832275 22.60969543 C80.89508036 22.66435771 77.07189451 22.69939387 73.2483902 22.72966385 C70.87871904 22.74996813 68.50917962 22.77594849 66.1395874 22.80392456 C38.07858678 23.13346589 10.05157872 22.84580516 -18 22 C-16.625 20 -16.625 20 -15 18 C-14.34 18 -13.68 18 -13 18 C-12.731875 17.360625 -12.46375 16.72125 -12.1875 16.0625 C-11 14 -11 14 -8 13 C-6.89363605 10.60931266 -6.89363605 10.60931266 -6 8 C-5.34 7.01 -4.68 6.02 -4 5 C-3.01 5 -2.02 5 -1 5 C-0.67 3.35 -0.34 1.7 0 0 Z " fill="#933210" transform="translate(324,213)"/>
<path d="M0 0 C7.9854201 0.26673637 16.35083494 2.53283893 22.0625 8.3125 C24.67717734 11.47950259 27.17772897 14.65455622 29.0625 18.3125 C28.5675 19.7975 28.5675 19.7975 28.0625 21.3125 C27.0725 20.9825 26.0825 20.6525 25.0625 20.3125 C23.875 17.75 23.875 17.75 23.0625 15.3125 C21.0825 15.3125 19.1025 15.3125 17.0625 15.3125 C17.35125 15.89 17.64 16.4675 17.9375 17.0625 C18.30875 17.805 18.68 18.5475 19.0625 19.3125 C19.43375 20.01375 19.805 20.715 20.1875 21.4375 C21.0625 23.3125 21.0625 23.3125 21.0625 25.3125 C20.4025 25.3125 19.7425 25.3125 19.0625 25.3125 C17.984375 23.703125 17.984375 23.703125 16.8125 21.5625 C13.88573542 16.67012726 10.49873689 14.12457896 5.0625 12.3125 C3.16779184 12.2439505 1.2708166 12.22769628 -0.625 12.25 C-1.61886719 12.25902344 -2.61273438 12.26804687 -3.63671875 12.27734375 C-4.39597656 12.28894531 -5.15523438 12.30054687 -5.9375 12.3125 C-5.82351335 10.68669034 -5.69594341 9.06182843 -5.5625 7.4375 C-5.49289062 6.53257813 -5.42328125 5.62765625 -5.3515625 4.6953125 C-4.71375871 1.02493218 -3.65294114 0.38861076 0 0 Z " fill="#C14908" transform="translate(364.9375,78.6875)"/>
<path d="M0 0 C0.99 0 1.98 0 3 0 C2.45970164 8.70524754 1.21280085 17.12806788 -0.4375 25.6875 C-0.65470703 26.84572266 -0.87191406 28.00394531 -1.09570312 29.19726562 C-1.51997105 31.4409167 -1.95237517 33.68304902 -2.39404297 35.92333984 C-2.77918696 37.87885338 -3.14970887 39.83734727 -3.50048828 41.79931641 C-3.89972416 43.8879765 -4.43540332 45.94984858 -5 48 C-6.485 48.495 -6.485 48.495 -8 49 C-8.38671875 48.50628906 -8.7734375 48.01257813 -9.171875 47.50390625 C-9.69265625 46.86324219 -10.2134375 46.22257812 -10.75 45.5625 C-11.26046875 44.92441406 -11.7709375 44.28632812 -12.296875 43.62890625 C-14.19667629 41.81189446 -15.43586908 41.39576803 -18 41 C-18.31453125 41.59167969 -18.6290625 42.18335938 -18.953125 42.79296875 C-21.33264624 47.18648236 -23.70038047 51.21154795 -27 55 C-27.33 54.67 -27.66 54.34 -28 54 C-27.35181198 47.25884463 -26.27340666 42.47440565 -21 38 C-19.515 37.505 -19.515 37.505 -18 37 C-17.34 36.34 -16.68 35.68 -16 35 C-13.90200436 34.34437636 -12.19959601 34 -10 34 C-9.01 33.505 -9.01 33.505 -8 33 C-6.515 33.495 -6.515 33.495 -5 34 C-4.96261719 33.27296875 -4.92523438 32.5459375 -4.88671875 31.796875 C-4.18121984 21.00689166 -1.56002683 11.17150524 2 1 C1.34 0.67 0.68 0.34 0 0 Z " fill="#912C0A" transform="translate(355,80)"/>
<path d="M0 0 C1.27462325 1.43803649 2.54283424 2.88470014 3.7265625 4.3984375 C5.33658514 6.4233126 7.13838858 8.20733715 9 10 C5.11920004 10.22176 2.53385738 9.5809362 -1 8 C-1.99 7.67 -2.98 7.34 -4 7 C-5.88391785 10.26545761 -6.49287967 13.28111761 -7 17 C-7.99 17 -8.98 17 -10 17 C-10.66 17.66 -11.32 18.32 -12 19 C-11.34 20.98 -10.68 22.96 -10 25 C-8.86111328 25.16435547 -8.86111328 25.16435547 -7.69921875 25.33203125 C-6.70535156 25.49058594 -5.71148437 25.64914063 -4.6875 25.8125 C-3.70136719 25.96332031 -2.71523438 26.11414063 -1.69921875 26.26953125 C1.19259255 27.05211984 2.05717465 27.82588591 4 30 C6.60611077 30.72197162 6.60611077 30.72197162 9 31 C8.67 31.99 8.34 32.98 8 34 C0.44679246 34.83924528 -3.97773914 32.46781365 -10 28 C-17.38944481 21.77519595 -17.38944481 21.77519595 -18 17 C-17.05957031 15.30834961 -17.05957031 15.30834961 -15.578125 13.65234375 C-15.04703125 13.04712891 -14.5159375 12.44191406 -13.96875 11.81835938 C-13.11796875 10.88733398 -13.11796875 10.88733398 -12.25 9.9375 C-11.69828125 9.31294922 -11.1465625 8.68839844 -10.578125 8.04492188 C-9.06934342 6.34572916 -7.55041408 4.6612692 -6 3 C-5.5059668 2.43869385 -5.01193359 1.8773877 -4.50292969 1.29907227 C-3 0 -3 0 0 0 Z " fill="#8E3111" transform="translate(260,199)"/>
<path d="M0 0 C2.96546426 4.9665499 2.63107029 10.34307771 3 16 C8.28 16 13.56 16 19 16 C19 16.33 19 16.66 19 17 C14.38 17 9.76 17 5 17 C5 20.63 5 24.26 5 28 C4.34 28 3.68 28 3 28 C3.11859375 28.81984375 3.2371875 29.6396875 3.359375 30.484375 C3.48828125 31.56203125 3.6171875 32.6396875 3.75 33.75 C3.88921875 34.81734375 4.0284375 35.8846875 4.171875 36.984375 C4 40 4 40 2.234375 42.35546875 C0 44 0 44 -3.5 44.5625 C-7 44 -7 44 -9.5625 41.9375 C-11 39 -11 39 -10.375 35.375 C-9 32 -9 32 -7 29 C-7 30.65 -7 32.3 -7 34 C-6.34 34 -5.68 34 -5 34 C-4.67 31.69 -4.34 29.38 -4 27 C-3.67 27.66 -3.34 28.32 -3 29 C-2.34 29.33 -1.68 29.66 -1 30 C-0.40644386 32.64860427 -0.25790731 35.29197322 0 38 C0.33 37.01 0.66 36.02 1 35 C0.67 34.67 0.34 34.34 0 34 C-0.17114954 31.83040571 -0.27524685 29.65546472 -0.3515625 27.48046875 C-0.37471527 26.82548904 -0.39786804 26.17050934 -0.42172241 25.49568176 C-0.46943035 24.10616992 -0.51465598 22.716571 -0.55761719 21.3269043 C-0.62440083 19.2065238 -0.70228522 17.08675446 -0.78125 14.96679688 C-0.82619649 13.61720983 -0.87048833 12.2676008 -0.9140625 10.91796875 C-0.9548291 9.68844482 -0.9955957 8.4589209 -1.03759766 7.19213867 C-1.00635815 4.53982364 -0.80674767 2.5024767 0 0 Z " fill="#C04408" transform="translate(394,101)"/>
<path d="M0 0 C1.72545616 0.75849747 3.45438567 1.50916798 5.1875 2.25 C6.46010055 2.82946785 7.7316697 3.41124421 9 4 C8.01 4.66 7.02 5.32 6 6 C4.07899377 9.73093387 3.64903945 13.15623505 3.375 17.3125 C3.30023438 18.38113281 3.22546875 19.44976562 3.1484375 20.55078125 C3.09945313 21.35902344 3.05046875 22.16726562 3 23 C2.67 23 2.34 23 2 23 C1.67 21.02 1.34 19.04 1 17 C0.67 17 0.34 17 0 17 C-0.33 14.36 -0.66 11.72 -1 9 C-1.680625 8.9175 -2.36125 8.835 -3.0625 8.75 C-6.8746907 7.77667472 -9.64070329 6.04192545 -13 4 C-13 2.68 -13 1.36 -13 0 C-14.19637245 1.00814448 -14.19637245 1.00814448 -14.375 3 C-14.58125 3.66 -14.7875 4.32 -15 5 C-15.99 5.33 -16.98 5.66 -18 6 C-18 5.34 -18 4.68 -18 4 C-18.99 4.33 -19.98 4.66 -21 5 C-21 4.34 -21 3.68 -21 3 C-22.32 3.33 -23.64 3.66 -25 4 C-23.04204082 0.08408164 -18.38662227 -1.25706961 -14.5546875 -2.984375 C-8.75311161 -4.64196811 -5.13744293 -2.71207395 0 0 Z " fill="#A83B0B" transform="translate(384,160)"/>
<path d="M0 0 C0 3.3 0 6.6 0 10 C0.928125 10.28875 1.85625 10.5775 2.8125 10.875 C6 12 6 12 9 14 C12.84889483 14.20993972 16.31233808 14.18005182 20 13 C20 13.33 20 13.66 20 14 C22.475 14.495 22.475 14.495 25 15 C25 15.66 25 16.32 25 17 C15.26900179 23.12948998 15.26900179 23.12948998 10.9375 22.6875 C9.968125 22.130625 8.99875 21.57375 8 21 C1.87978385 17.71648845 -3.00664488 15.38851973 -10 15 C-10 14.67 -10 14.34 -10 14 C-6.535 13.505 -6.535 13.505 -3 13 C-3.66 12.34 -4.32 11.68 -5 11 C-4.34 11 -3.68 11 -3 11 C-3 7.7 -3 4.4 -3 1 C-1 0 -1 0 0 0 Z " fill="#993915" transform="translate(361,173)"/>
<path d="M0 0 C0 0.99 0 1.98 0 3 C-0.66 3 -1.32 3 -2 3 C-2 3.66 -2 4.32 -2 5 C-3.64556566 6.03435556 -5.3170608 7.02763513 -7 8 C-8.68477344 9.31037934 -10.35648543 10.63823078 -12 12 C-12.495 11.01 -12.495 11.01 -13 10 C-11.68 8.68 -10.36 7.36 -9 6 C-12.56352636 5.78519378 -12.56352636 5.78519378 -15.84667969 6.99560547 C-18.46314586 8.21602971 -20.32476156 8.22878184 -23.203125 8.1953125 C-24.67265625 8.18564453 -24.67265625 8.18564453 -26.171875 8.17578125 C-27.18765625 8.15902344 -28.2034375 8.14226562 -29.25 8.125 C-30.28125 8.11597656 -31.3125 8.10695313 -32.375 8.09765625 C-34.91690287 8.07412011 -37.4583328 8.04124023 -40 8 C-40 9.98 -40 11.96 -40 14 C-44.875 10.375 -44.875 10.375 -46 7 C-44.15116808 5.15116808 -41.18137455 5.25849141 -38.69140625 4.84375 C-37.73028175 4.68295959 -37.73028175 4.68295959 -36.7497406 4.5189209 C-35.3856509 4.2917363 -34.02122246 4.06657799 -32.65649414 3.84326172 C-30.60143627 3.5063827 -28.54775882 3.16193959 -26.49414062 2.81640625 C-17.68570329 1.34951734 -8.94850651 -0.08626011 0 0 Z " fill="#B94208" transform="translate(354,81)"/>
<path d="M0 0 C1.09658936 3.28976808 0.79953138 4.71303767 0 8 C0.66 8 1.32 8 2 8 C2 8.66 2 9.32 2 10 C0.02 10.99 0.02 10.99 -2 12 C-1.67 12.99 -1.34 13.98 -1 15 C-1.763125 15.61875 -2.52625 16.2375 -3.3125 16.875 C-8.34325332 21.89150189 -9.44116725 30.15429875 -10 37 C-9.67 37.99 -9.34 38.98 -9 40 C-9.46883711 41.62403484 -9.94320608 43.24671855 -10.44824219 44.85986328 C-11.54987023 49.13281522 -11.75924645 53.55145538 -12.125 57.9375 C-12.21136719 58.90751953 -12.29773438 59.87753906 -12.38671875 60.87695312 C-12.59721119 63.25084011 -12.80147885 65.62508706 -13 68 C-13.33 68 -13.66 68 -14 68 C-14.33 64.37 -14.66 60.74 -15 57 C-15.33 57 -15.66 57 -16 57 C-15.10229371 40.65555437 -12.33655908 12.33655908 0 0 Z " fill="#AE4716" transform="translate(310,113)"/>
<path d="M0 0 C0.79921875 0.11085937 1.5984375 0.22171875 2.421875 0.3359375 C3.32679688 0.47902344 3.32679688 0.47902344 4.25 0.625 C3.92 1.285 3.59 1.945 3.25 2.625 C1.18359375 3.0390625 1.18359375 3.0390625 -1.3125 3.25 C-2.13878906 3.32476562 -2.96507812 3.39953125 -3.81640625 3.4765625 C-4.77353516 3.55003906 -4.77353516 3.55003906 -5.75 3.625 C-5.74476318 4.6037207 -5.73952637 5.58244141 -5.73413086 6.59082031 C-5.71600439 10.22866905 -5.70454003 13.86651381 -5.69506836 17.50439453 C-5.69004563 19.07764355 -5.68322625 20.65088792 -5.67456055 22.22412109 C-5.66240471 24.48796743 -5.65675104 26.75175193 -5.65234375 29.015625 C-5.64718246 29.71681458 -5.64202118 30.41800415 -5.63670349 31.14044189 C-5.63631255 34.55855044 -5.91218973 37.27375894 -6.75 40.625 C5.79 40.625 18.33 40.625 31.25 40.625 C31.25 40.955 31.25 41.285 31.25 41.625 C18.05 41.625 4.85 41.625 -8.75 41.625 C-8.75 30.075 -8.75 18.525 -8.75 6.625 C-9.41 6.295 -10.07 5.965 -10.75 5.625 C-9.79585337 3.23963343 -9.15189883 1.88588169 -6.96875 0.46875 C-4.34753612 -0.52804965 -2.75664899 -0.40538956 0 0 Z " fill="#7A2309" transform="translate(354.75,184.375)"/>
<path d="M0 0 C0.33 0 0.66 0 1 0 C1.2170816 4.92900682 1.41393235 9.85824911 1.59204102 14.78881836 C1.65548549 16.46612148 1.72446244 18.1432248 1.79907227 19.82006836 C1.90534011 22.22999489 1.99171366 24.63993877 2.07421875 27.05078125 C2.11157639 27.80087967 2.14893402 28.55097809 2.18742371 29.32380676 C2.33889635 34.56432326 2.33889635 34.56432326 0.49536133 36.93432617 C0.00189209 37.28599854 -0.49157715 37.6376709 -1 38 C-1 38.33 -1 38.66 -1 39 C-7.92290946 39.21878619 -14.84619349 39.41375744 -21.77026367 39.59204102 C-24.12653845 39.65553977 -26.4826719 39.72452614 -28.83862305 39.79907227 C-32.2216225 39.90516928 -35.60463639 39.99163636 -38.98828125 40.07421875 C-40.57277824 40.1302552 -40.57277824 40.1302552 -42.18928528 40.18742371 C-43.17007553 40.20767105 -44.15086578 40.2279184 -45.16137695 40.2487793 C-46.02519485 40.27320602 -46.88901276 40.29763275 -47.77900696 40.32279968 C-50 40 -50 40 -51.82194519 38.62117004 C-53 37 -53 37 -52.6875 34.8125 C-52.460625 34.214375 -52.23375 33.61625 -52 33 C-52 33.99 -52 34.98 -52 36 C-45.21874162 35.90778485 -38.43784311 35.80048639 -31.65698242 35.68261719 C-29.34942056 35.64429584 -27.04179832 35.60944859 -24.73413086 35.578125 C-21.42019037 35.53254318 -18.10666673 35.47453712 -14.79296875 35.4140625 C-13.24128242 35.39673569 -13.24128242 35.39673569 -11.6582489 35.37905884 C-10.6974794 35.35918915 -9.7367099 35.33931946 -8.74682617 35.31884766 C-7.90077316 35.30552399 -7.05472015 35.29220032 -6.18302917 35.2784729 C-3.70908991 35.12741711 -3.70908991 35.12741711 -1 33 C-0.66197325 30.45420623 -0.5112053 28.13850914 -0.48828125 25.5859375 C-0.47033005 24.85629791 -0.45237885 24.12665833 -0.43388367 23.37490845 C-0.37964868 21.04166465 -0.34584438 18.70862686 -0.3125 16.375 C-0.27933838 14.79424208 -0.2448498 13.21351139 -0.20898438 11.6328125 C-0.12391533 7.75535674 -0.05716822 3.87796345 0 0 Z " fill="#984222" transform="translate(401,188)"/>
<path d="M0 0 C2.97587101 2.97587101 2.89043512 6.54452246 3.4375 10.5625 C3.56020264 11.43567871 3.68290527 12.30885742 3.80932617 13.20849609 C4.07327602 15.11474492 4.33224064 17.02168891 4.58691406 18.92919922 C4.8696384 21.03091716 5.1610776 23.13147611 5.45996094 25.23095703 C5.9285004 28.52680585 6.37319203 31.82513931 6.8125 35.125 C6.96066162 36.15439697 7.10882324 37.18379395 7.26147461 38.24438477 C8.11026315 44.92162951 7.76059028 50.49756518 6 57 C5.67 57 5.34 57 5 57 C4.94392578 55.35064453 4.94392578 55.35064453 4.88671875 53.66796875 C4.56426387 45.93255652 4.08584285 38.72954656 1.71875 31.296875 C0.3449528 26.90669699 -0.12223137 22.85726558 -0.09765625 18.26171875 C-0.09443359 17.19501953 -0.09121094 16.12832031 -0.08789062 15.02929688 C-0.07951172 13.92650391 -0.07113281 12.82371094 -0.0625 11.6875 C-0.05798828 10.56537109 -0.05347656 9.44324219 -0.04882812 8.28710938 C-0.03707313 5.5246849 -0.02064077 2.76237002 0 0 Z " fill="#993307" transform="translate(426,166)"/>
<path d="M0 0 C11.88 0 23.76 0 36 0 C35.18386212 4.08068938 34.17740747 7.85279548 32.9375 11.8125 C32.57527344 12.97394531 32.21304688 14.13539063 31.83984375 15.33203125 C31.56269531 16.21246094 31.28554688 17.09289062 31 18 C30.67 18 30.34 18 30 18 C29.97269592 16.43759968 29.95346774 14.8750573 29.9375 13.3125 C29.92589844 12.44238281 29.91429687 11.57226562 29.90234375 10.67578125 C30 8 30 8 31 3 C21.43 3 11.86 3 2 3 C1.67 2.34 1.34 1.68 1 1 C1.33 8.59 1.66 16.18 2 24 C1.34 24 0.68 24 0 24 C0 16.08 0 8.16 0 0 Z " fill="#BA734F" transform="translate(265,117)"/>
<path d="M0 0 C0.66 0 1.32 0 2 0 C-0.36530293 7.25774531 -6.71176813 10.95672288 -13.25 14.375 C-19.26283252 17.33002453 -25.25914213 17.12602994 -31.8125 17.0625 C-32.69615234 17.05798828 -33.57980469 17.05347656 -34.49023438 17.04882812 C-36.66018559 17.03709866 -38.83010172 17.01916495 -41 17 C-41 16.34 -41 15.68 -41 15 C-34.96445452 14.30739642 -29.07593562 13.88748267 -23 14 C-23 13.34 -23 12.68 -23 12 C-21.906875 11.896875 -20.81375 11.79375 -19.6875 11.6875 C-15.87713346 10.97709268 -15.38262908 10.70753305 -13 8 C-11.35008418 7.29289322 -9.68437744 6.62056011 -8 6 C-7.67 5.67 -7.34 5.34 -7 5 C-5.33382885 4.95936168 -3.66611905 4.957279 -2 5 C-1.67 4.01 -1.34 3.02 -1 2 C-0.67 1.34 -0.34 0.68 0 0 Z " fill="#892D10" transform="translate(311,218)"/>
<path d="M0 0 C0.33 0 0.66 0 1 0 C1.19984651 3.6244271 1.38255961 7.24953444 1.5625 10.875 C1.61857422 11.88820312 1.67464844 12.90140625 1.73242188 13.9453125 C2.52363292 30.40250223 2.52363292 30.40250223 -0.70703125 35.91015625 C-1.40183594 36.62042969 -2.09664063 37.33070313 -2.8125 38.0625 C-3.84310547 39.16271484 -3.84310547 39.16271484 -4.89453125 40.28515625 C-7.12692967 42.10338057 -8.15315632 42.78061021 -11 43 C-14.015625 42.44140625 -14.015625 42.44140625 -17.25 41.5625 C-18.86648438 41.13130859 -18.86648438 41.13130859 -20.515625 40.69140625 C-21.33546875 40.46324219 -22.1553125 40.23507813 -23 40 C-22.67 39.01 -22.34 38.02 -22 37 C-21.443125 37.10699219 -20.88625 37.21398437 -20.3125 37.32421875 C-14.70644229 38.20490011 -9.82665461 38.35026614 -5 35 C-1.95345374 29.59483729 -0.91163646 24.48395051 -0.68359375 18.359375 C-0.64169922 17.28945312 -0.59980469 16.21953125 -0.55664062 15.1171875 C-0.51732422 14.00601563 -0.47800781 12.89484375 -0.4375 11.75 C-0.39431641 10.62335938 -0.35113281 9.49671875 -0.30664062 8.3359375 C-0.20067985 5.55741046 -0.09860858 2.77879609 0 0 Z " fill="#9D5136" transform="translate(293,172)"/>
<path d="M0 0 C2.96546426 4.9665499 2.63107029 10.34307771 3 16 C8.28 16 13.56 16 19 16 C19 16.33 19 16.66 19 17 C14.38 17 9.76 17 5 17 C5 20.63 5 24.26 5 28 C4.34 28 3.68 28 3 28 C3.33 31.96 3.66 35.92 4 40 C3.01 40.495 3.01 40.495 2 41 C0.46831203 36.18408985 -0.2881992 31.98570166 -0.44921875 26.89453125 C-0.49240234 25.58162109 -0.53558594 24.26871094 -0.58007812 22.91601562 C-0.59756104 22.24223877 -0.61504395 21.56846191 -0.63305664 20.87426758 C-0.68764642 18.8069552 -0.75784791 16.74059179 -0.83007812 14.67382812 C-1.16122692 3.64820198 -1.16122692 3.64820198 0 0 Z " fill="#B33C10" transform="translate(394,101)"/>
<path d="M0 0 C0 0.66 0 1.32 0 2 C-1.175625 2.185625 -1.175625 2.185625 -2.375 2.375 C-5.14057822 2.79117993 -5.14057822 2.79117993 -7 5 C-8.87939453 5.31884766 -8.87939453 5.31884766 -11.1328125 5.4140625 C-12.34130859 5.47207031 -12.34130859 5.47207031 -13.57421875 5.53125 C-14.83685547 5.57765625 -14.83685547 5.57765625 -16.125 5.625 C-17.39923828 5.68300781 -17.39923828 5.68300781 -18.69921875 5.7421875 C-20.79911684 5.83656494 -22.89952891 5.91937586 -25 6 C-25 7.98 -25 9.96 -25 12 C-29.875 8.375 -29.875 8.375 -31 5 C-29.28954507 3.28954507 -26.94331397 3.40237461 -24.609375 3.02734375 C-23.50722656 2.85009766 -22.40507812 2.67285156 -21.26953125 2.49023438 C-20.10808594 2.30783203 -18.94664062 2.12542969 -17.75 1.9375 C-16.60402344 1.75123047 -15.45804687 1.56496094 -14.27734375 1.37304688 C-9.46912574 0.60899361 -4.87973642 -0.12025944 0 0 Z " fill="#B25B31" transform="translate(339,83)"/>
<path d="M0 0 C0.33 1.98 0.66 3.96 1 6 C-0.98 6.66 -2.96 7.32 -5 8 C-5 7.01 -5 6.02 -5 5 C-6.258125 5.061875 -7.51625 5.12375 -8.8125 5.1875 C-12.72231986 5.20826011 -12.72231986 5.20826011 -15 3.5 C-15.33 3.005 -15.66 2.51 -16 2 C-15.67 1.01 -15.34 0.02 -15 -1 C-10.01937884 -2.66020705 -5.04327586 -1.06978579 0 0 Z " fill="#C74403" transform="translate(378,84)"/>
<path d="M0 0 C1.27462325 1.43803649 2.54283424 2.88470014 3.7265625 4.3984375 C5.33658514 6.4233126 7.13838858 8.20733715 9 10 C5.11920004 10.22176 2.53385738 9.5809362 -1 8 C-1.99 7.67 -2.98 7.34 -4 7 C-4.6496875 7.7115625 -4.6496875 7.7115625 -5.3125 8.4375 C-7 10 -7 10 -10 11 C-10.99 12.485 -10.99 12.485 -12 14 C-12.99 13.67 -13.98 13.34 -15 13 C-13.07212573 10.82404268 -11.13370426 8.65945616 -9.1875 6.5 C-8.64029297 5.87996094 -8.09308594 5.25992188 -7.52929688 4.62109375 C-6.99755859 4.03457031 -6.46582031 3.44804687 -5.91796875 2.84375 C-5.18743286 2.02680664 -5.18743286 2.02680664 -4.44213867 1.19335938 C-3 0 -3 0 0 0 Z " fill="#8B381E" transform="translate(260,199)"/>
<path d="M0 0 C1.65 0 3.3 0 5 0 C5 0.66 5 1.32 5 2 C6.65 2.33 8.3 2.66 10 3 C10.33 5.97 10.66 8.94 11 12 C9.35 12.66 7.7 13.32 6 14 C5.87625 13.360625 5.7525 12.72125 5.625 12.0625 C5.41875 11.381875 5.2125 10.70125 5 10 C4.34 9.67 3.68 9.34 3 9 C3 8.34 3 7.68 3 7 C2.34 6.67 1.68 6.34 1 6 C1.66 6 2.32 6 3 6 C3 5.34 3 4.68 3 4 C1.68 4.33 0.36 4.66 -1 5 C-1.66 4.01 -2.32 3.02 -3 2 C-2.01 2 -1.02 2 0 2 C0 1.34 0 0.68 0 0 Z " fill="#B93D06" transform="translate(373,166)"/>
<path d="M0 0 C0 1.65 0 3.3 0 5 C-1.65 4.67 -3.3 4.34 -5 4 C-5.31453125 4.59167969 -5.6290625 5.18335937 -5.953125 5.79296875 C-8.33264624 10.18648236 -10.70038047 14.21154795 -14 18 C-14.33 17.67 -14.66 17.34 -15 17 C-14.35181198 10.25884463 -13.27340666 5.47440565 -8 1 C-5.07175348 0.02391783 -3.04386724 -0.08226668 0 0 Z " fill="#8D3311" transform="translate(342,117)"/>
<path d="M0 0 C1.09658936 3.28976808 0.79953138 4.71303767 0 8 C0.66 8 1.32 8 2 8 C2 8.66 2 9.32 2 10 C0.02 10.99 0.02 10.99 -2 12 C-1.67 12.99 -1.34 13.98 -1 15 C-2.175625 16.0209375 -2.175625 16.0209375 -3.375 17.0625 C-6.45850521 20.51308916 -7.04357515 22.56566662 -8 27 C-8.66 27 -9.32 27 -10 27 C-9.52162891 20.4747194 -7.76338984 15.46127447 -5 9.5625 C-4.44699219 8.34143555 -4.44699219 8.34143555 -3.8828125 7.09570312 C-1.17825941 1.17825941 -1.17825941 1.17825941 0 0 Z " fill="#BA430B" transform="translate(310,113)"/>
<path d="M0 0 C0.66 0.33 1.32 0.66 2 1 C-3 6 -3 6 -4.64257812 7.3828125 C-6.43289238 9.51573365 -6.38188806 10.8029563 -6.40625 13.5625 C-6.42816406 14.44164062 -6.45007813 15.32078125 -6.47265625 16.2265625 C-6.48167969 17.14179688 -6.49070312 18.05703125 -6.5 19 C-6.51787151 20.81268128 -6.5485777 22.62529353 -6.59375 24.4375 C-6.60083984 25.24058594 -6.60792969 26.04367188 -6.61523438 26.87109375 C-7.08385473 29.46396782 -7.9989677 30.35146743 -10 32 C-10.02720824 29.31243045 -10.0469388 26.62514202 -10.0625 23.9375 C-10.07087891 23.18533203 -10.07925781 22.43316406 -10.08789062 21.65820312 C-10.1410766 9.37224298 -10.1410766 9.37224298 -7.1875 5.8203125 C-6.465625 5.26085937 -5.74375 4.70140625 -5 4.125 C-4.278125 3.55007812 -3.55625 2.97515625 -2.8125 2.3828125 C-2.214375 1.92648438 -1.61625 1.47015625 -1 1 C-0.67 0.67 -0.34 0.34 0 0 Z " fill="#982E08" transform="translate(335,180)"/>
<path d="M0 0 C2.875 0.1875 2.875 0.1875 6 1 C7.5625 3.25 7.5625 3.25 8 6 C6.625 8.5 6.625 8.5 5 11 C4.74803871 13.70953551 4.74803871 13.70953551 5 16 C2.69 16.99 0.38 17.98 -2 19 C-2.33 18.01 -2.66 17.02 -3 16 C-1.22445479 12.51013529 0.24152313 9.75847687 3 7 C2.61121812 3.98694043 1.73543126 2.60314689 0 0 Z " fill="#BD511B" transform="translate(314,95)"/>
<path d="M0 0 C0.66 0 1.32 0 2 0 C2.58746417 22.35627548 2.58746417 22.35627548 -3 29 C-4.16045439 24.74500059 -3.82904781 21.31104861 -3 17 C-2.67 16.67 -2.34 16.34 -2 16 C-1.60006314 13.31137336 -1.24865457 10.63647783 -0.9375 7.9375 C-0.84662109 7.17888672 -0.75574219 6.42027344 -0.66210938 5.63867188 C-0.4375626 3.7595699 -0.21829022 1.87983905 0 0 Z " fill="#A25A42" transform="translate(318,185)"/>
<path d="M0 0 C0.33 0 0.66 0 1 0 C1.1176305 10.06394247 0.87801178 19.96557967 0 30 C-0.66 30 -1.32 30 -2 30 C-2 32.31 -2 34.62 -2 37 C-4.56520378 33.15219432 -3.78490107 32.47393612 -3 28 C-2.99720275 26.18738243 -3.02109342 24.37464673 -3.0625 22.5625 C-3.13565196 15.28387972 -2.29574984 8.15972721 -1 1 C-0.67 0.67 -0.34 0.34 0 0 Z " fill="#8A2F0D" transform="translate(320,155)"/>
<path d="M0 0 C0.99 0.495 0.99 0.495 2 1 C1.67 7.6 1.34 14.2 1 21 C9.58 20.67 18.16 20.34 27 20 C27 20.99 27 21.98 27 23 C22.68751391 23.02886537 18.37505238 23.04675255 14.0625 23.0625 C12.83080078 23.07087891 11.59910156 23.07925781 10.33007812 23.08789062 C9.16025391 23.09111328 7.99042969 23.09433594 6.78515625 23.09765625 C5.15912476 23.10551147 5.15912476 23.10551147 3.50024414 23.11352539 C1 23 1 23 0 22 C-0.08700342 20.36527118 -0.10701063 18.72685945 -0.09765625 17.08984375 C-0.09443359 16.10048828 -0.09121094 15.11113281 -0.08789062 14.09179688 C-0.07951172 13.05087891 -0.07113281 12.00996094 -0.0625 10.9375 C-0.05798828 9.89271484 -0.05347656 8.84792969 -0.04882812 7.77148438 C-0.03699913 5.1809334 -0.02051689 2.59049441 0 0 Z " fill="#9E4117" transform="translate(266,118)"/>
<path d="M0 0 C2.31 0.33 4.62 0.66 7 1 C6.67 4.96 6.34 8.92 6 13 C3.69 13 1.38 13 -1 13 C-0.67 8.71 -0.34 4.42 0 0 Z " fill="#96411E" transform="translate(371,175)"/>
<path d="M0 0 C1.32 0.99 2.64 1.98 4 3 C3.7834375 3.82177734 3.7834375 3.82177734 3.5625 4.66015625 C1.77407887 12.29820485 -0.08041868 22.99099196 3.015625 30.4453125 C3.34046875 30.95835937 3.6653125 31.47140625 4 32 C2.4375 34.0625 2.4375 34.0625 0 36 C-3.75 35.75 -3.75 35.75 -7 35 C-7 34.67 -7 34.34 -7 34 C-4.03 33.505 -4.03 33.505 -1 33 C-0.67 22.11 -0.34 11.22 0 0 Z " fill="#BF4107" transform="translate(403,132)"/>
<path d="M0 0 C0.66 1.32 1.32 2.64 2 4 C-2.06886656 6.90825004 -4.86989156 7.35854769 -9.83203125 7.29296875 C-11.12431641 7.28330078 -12.41660156 7.27363281 -13.74804688 7.26367188 C-15.1028707 7.23860985 -16.45768841 7.21321506 -17.8125 7.1875 C-19.18683445 7.17244013 -20.56118468 7.15875401 -21.93554688 7.14648438 C-25.29076632 7.11116628 -28.64518166 7.06183851 -32 7 C-32 6.67 -32 6.34 -32 6 C-27.05 6 -22.1 6 -17 6 C-16.67 5.34 -16.34 4.68 -16 4 C-15.43152344 4.04640625 -14.86304688 4.0928125 -14.27734375 4.140625 C-8.2258455 4.42349971 -5.00240438 3.40589234 0 0 Z " fill="#90442A" transform="translate(430,228)"/>
<path d="M0 0 C0 0.66 0 1.32 0 2 C2.64 2 5.28 2 8 2 C8 2.33 8 2.66 8 3 C-3.88 3 -15.76 3 -28 3 C-28 2.34 -28 1.68 -28 1 C-18.62895894 0.11504503 -9.40228594 -0.1170409 0 0 Z " fill="#8F3E1E" transform="translate(349,232)"/>
<path d="M0 0 C1.670625 0.061875 1.670625 0.061875 3.375 0.125 C3.375 0.785 3.375 1.445 3.375 2.125 C2.055 2.125 0.735 2.125 -0.625 2.125 C-0.625 2.785 -0.625 3.445 -0.625 4.125 C-1.615 4.62 -1.615 4.62 -2.625 5.125 C-2.625 6.445 -2.625 7.765 -2.625 9.125 C0.675 9.455 3.975 9.785 7.375 10.125 C7.375 10.785 7.375 11.445 7.375 12.125 C2.755 12.125 -1.865 12.125 -6.625 12.125 C-5.70744681 0.19680851 -5.70744681 0.19680851 0 0 Z " fill="#AB4512" transform="translate(365.625,78.875)"/>
<path d="M0 0 C0.886875 0.309375 1.77375 0.61875 2.6875 0.9375 C5.46709155 1.8290671 8.13136375 2.49377007 11 3 C11 4.65 11 6.3 11 8 C11.66 8.33 12.32 8.66 13 9 C7.32723489 9.29341888 4.00932754 9.00559652 -1 6 C-0.67 4.02 -0.34 2.04 0 0 Z " fill="#B7420F" transform="translate(365,167)"/>
<path d="M0 0 C5.21147089 0.80176475 8.6998299 3.43260126 11.9765625 7.3828125 C15.62484589 12.36831531 15.62484589 12.36831531 17 15 C16.67 15.99 16.34 16.98 16 18 C15.01 17.67 14.02 17.34 13 17 C12.31867549 15.33927151 11.65257873 13.672233 11 12 C10.01 11.34 9.02 10.68 8 10 C8 9.34 8 8.68 8 8 C7.34 7.67 6.68 7.34 6 7 C6 6.34 6 5.68 6 5 C5.01 5 4.02 5 3 5 C2.67 4.01 2.34 3.02 2 2 C1.34 1.34 0.68 0.68 0 0 Z " fill="#B9602E" transform="translate(377,82)"/>
<path d="M0 0 C1.875 0.25 1.875 0.25 4 1 C4.69937532 2.31647119 5.36729133 3.65022151 6 5 C6.99 5.33 7.98 5.66 9 6 C8.34 6.66 7.68 7.32 7 8 C7 7.34 7 6.68 7 6 C4.12635209 5.58253392 4.12635209 5.58253392 1 6 C-0.73538192 8.39224959 -0.73538192 8.39224959 -2 11 C-2.99 11.33 -3.98 11.66 -5 12 C-4.54738642 10.56068883 -4.08767021 9.12361001 -3.625 7.6875 C-3.24214844 6.48673828 -3.24214844 6.48673828 -2.8515625 5.26171875 C-2 3 -2 3 0 0 Z " fill="#B65F34" transform="translate(338,129)"/>
<path d="M0 0 C0.99 0 1.98 0 3 0 C2.45089248 9.82713114 0.81857774 19.3466691 -1 29 C-1.33 29 -1.66 29 -2 29 C-3.9933888 18.579116 -1.55042741 10.68075016 2 1 C1.34 0.67 0.68 0.34 0 0 Z " fill="#9B5C45" transform="translate(355,80)"/>
<path d="M0 0 C2 2 2 2 2.22705078 4.52197266 C2.21657715 5.5588623 2.20610352 6.59575195 2.1953125 7.6640625 C2.18886719 8.78554687 2.18242187 9.90703125 2.17578125 11.0625 C2.15902344 12.238125 2.14226562 13.41375 2.125 14.625 C2.11597656 15.80835938 2.10695313 16.99171875 2.09765625 18.2109375 C2.07402812 21.14082523 2.04108514 24.0703134 2 27 C1.01 27.33 0.02 27.66 -1 28 C-1.10731538 18.60394198 -0.99263429 9.35912329 0 0 Z " fill="#AE4F25" transform="translate(327,160)"/>
<path d="M0 0 C0 0.33 0 0.66 0 1 C-8.91 1 -17.82 1 -27 1 C-27 0.34 -27 -0.32 -27 -1 C-7.04613402 -2.89072165 -7.04613402 -2.89072165 0 0 Z " fill="#AF582B" transform="translate(385,118)"/>
<path d="M0 0 C0.33 0 0.66 0 1 0 C1.99 8.91 2.98 17.82 4 27 C3.34 27 2.68 27 2 27 C-1.8070741 19.3858518 -2.03612075 8.14448299 0 0 Z " fill="#AA6943" transform="translate(428,172)"/>
<path d="M0 0 C0.92683594 0.00451172 1.85367187 0.00902344 2.80859375 0.01367188 C5.08079709 0.02538426 7.35286388 0.04178628 9.625 0.0625 C9.955 0.7225 10.285 1.3825 10.625 2.0625 C6.88264681 4.51239101 3.18274581 4.29336143 -1.125 4.1875 C-1.82238281 4.17847656 -2.51976562 4.16945312 -3.23828125 4.16015625 C-4.95066958 4.13669888 -6.66288004 4.10083104 -8.375 4.0625 C-8.375 3.4025 -8.375 2.7425 -8.375 2.0625 C-11.015 2.0625 -13.655 2.0625 -16.375 2.0625 C-16.375 1.7325 -16.375 1.4025 -16.375 1.0625 C-10.89230931 -0.09414737 -5.57160726 -0.05166255 0 0 Z " fill="#982907" transform="translate(365.375,231.9375)"/>
<path d="M0 0 C1.98 0 3.96 0 6 0 C5.360625 0.268125 4.72125 0.53625 4.0625 0.8125 C1.66868314 1.88667752 1.66868314 1.88667752 1 5 C-5.27 5 -11.54 5 -18 5 C-18 4.34 -18 3.68 -18 3 C-11.96445452 2.30739642 -6.07593562 1.88748267 0 2 C0 1.34 0 0.68 0 0 Z " fill="#8E371A" transform="translate(288,230)"/>
<path d="M0 0 C0 3.3 0 6.6 0 10 C0.66 10.33 1.32 10.66 2 11 C1.01 11 0.02 11 -1 11 C-0.01 11.99 0.98 12.98 2 14 C-1.9813783 15.3271261 -5.85045227 15.06915913 -10 15 C-10 14.67 -10 14.34 -10 14 C-6.535 13.505 -6.535 13.505 -3 13 C-3.66 12.34 -4.32 11.68 -5 11 C-4.34 11 -3.68 11 -3 11 C-3 7.7 -3 4.4 -3 1 C-1 0 -1 0 0 0 Z " fill="#B15D41" transform="translate(361,173)"/>
<path d="M0 0 C5.61 0 11.22 0 17 0 C17 0.99 17 1.98 17 3 C12.38 3 7.76 3 3 3 C2.34 4.65 1.68 6.3 1 8 C1.66 8.33 2.32 8.66 3 9 C2.01 9 1.02 9 0 9 C-1.125 3.375 -1.125 3.375 0 0 Z " fill="#B2430D" transform="translate(399,118)"/>
<path d="M0 0 C0.66 0.33 1.32 0.66 2 1 C2 3.31 2 5.62 2 8 C10.25 8 18.5 8 27 8 C27 8.33 27 8.66 27 9 C25.88757935 9.03758423 25.88757935 9.03758423 24.75268555 9.07592773 C21.39744672 9.19186132 18.04249056 9.31459985 14.6875 9.4375 C12.93663086 9.49647461 12.93663086 9.49647461 11.15039062 9.55664062 C10.03212891 9.59853516 8.91386719 9.64042969 7.76171875 9.68359375 C6.2142395 9.73858032 6.2142395 9.73858032 4.63549805 9.79467773 C1.89251742 9.90161242 1.89251742 9.90161242 -1 11 C-2.60080151 6.99799622 -1.29279692 3.95443764 0 0 Z " fill="#B14002" transform="translate(357,118)"/>
<path d="M0 0 C1.32 0.33 2.64 0.66 4 1 C3.67 2.98 3.34 4.96 3 7 C2.01 7 1.02 7 0 7 C-2.67398476 8.93897879 -2.67398476 8.93897879 -5 11 C-5.33 8.69 -5.66 6.38 -6 4 C-5.38125 3.896875 -4.7625 3.79375 -4.125 3.6875 C-1.63473516 3.12474627 -1.63473516 3.12474627 0 0 Z " fill="#952805" transform="translate(250,209)"/>
<path d="M0 0 C0.66 0.33 1.32 0.66 2 1 C2.125 7.75 2.125 7.75 1 10 C0.01 10 -0.98 10 -2 10 C-2.33 10.99 -2.66 11.98 -3 13 C-3.33 13.66 -3.66 14.32 -4 15 C-5.65 15 -7.3 15 -9 15 C-8.505 14.566875 -8.01 14.13375 -7.5 13.6875 C-5.66781808 12.00259517 -5.66781808 12.00259517 -6 9 C-4.35 8.67 -2.7 8.34 -1 8 C-0.67 5.36 -0.34 2.72 0 0 Z " fill="#8B240A" transform="translate(313,208)"/>
<path d="M0 0 C0.79921875 0.11085937 1.5984375 0.22171875 2.421875 0.3359375 C3.32679688 0.47902344 3.32679688 0.47902344 4.25 0.625 C3.92 1.285 3.59 1.945 3.25 2.625 C1.18359375 3.0390625 1.18359375 3.0390625 -1.3125 3.25 C-2.13878906 3.32476562 -2.96507812 3.39953125 -3.81640625 3.4765625 C-4.77353516 3.55003906 -4.77353516 3.55003906 -5.75 3.625 C-6.08 4.945 -6.41 6.265 -6.75 7.625 C-8.07 6.965 -9.39 6.305 -10.75 5.625 C-9.79585337 3.23963343 -9.15189883 1.88588169 -6.96875 0.46875 C-4.34753612 -0.52804965 -2.75664899 -0.40538956 0 0 Z " fill="#913313" transform="translate(354.75,184.375)"/>
<path d="M0 0 C0.66 1.32 1.32 2.64 2 4 C2.66 4 3.32 4 4 4 C4.3403125 5.3921875 4.3403125 5.3921875 4.6875 6.8125 C6.22428705 10.54469713 7.52758945 11.1724155 11 13 C11 13.66 11 14.32 11 15 C5.830455 13.59012409 2.24658648 10.13677955 -1 6 C-1.828125 3.8984375 -1.828125 3.8984375 -2 2 C-1.34 1.34 -0.68 0.68 0 0 Z " fill="#8C3725" transform="translate(244,214)"/>
<path d="M0 0 C1.32 0.33 2.64 0.66 4 1 C3.835 1.99 3.67 2.98 3.5 4 C2.91525483 8.02732942 2.92867976 11.93474623 3 16 C2.01 16.33 1.02 16.66 0 17 C0 11.39 0 5.78 0 0 Z " fill="#BF4105" transform="translate(389,166)"/>
<path d="M0 0 C0.66 0.66 1.32 1.32 2 2 C4.74485593 2.14507695 7.38480543 2.18652423 10.125 2.125 C11.25615234 2.11146484 11.25615234 2.11146484 12.41015625 2.09765625 C14.27357254 2.0740687 16.13682593 2.03819719 18 2 C18 2.33 18 2.66 18 3 C13.38 3 8.76 3 4 3 C4 6.63 4 10.26 4 14 C3.34 14 2.68 14 2 14 C0.09391902 10.78817851 -0.22266247 8.46117397 -0.125 4.75 C-0.09792969 3.41195312 -0.09792969 3.41195312 -0.0703125 2.046875 C-0.04710937 1.37140625 -0.02390625 0.6959375 0 0 Z " fill="#C18062" transform="translate(395,115)"/>
<path d="M0 0 C0.75 2.125 0.75 2.125 1 5 C-0.8125 8.3125 -0.8125 8.3125 -3 11 C-3.66 11 -4.32 11 -5 11 C-3.125 6.125 -3.125 6.125 -2 5 C-4.56893838 3.71553081 -6.76576337 3.67022856 -9.625 3.4375 C-10.62789063 3.35371094 -11.63078125 3.26992187 -12.6640625 3.18359375 C-13.43492187 3.12300781 -14.20578125 3.06242188 -15 3 C-15 2.67 -15 2.34 -15 2 C-12.87528825 1.6648342 -10.75022095 1.33192171 -8.625 1 C-7.44164062 0.814375 -6.25828125 0.62875 -5.0390625 0.4375 C-2 0 -2 0 0 0 Z " fill="#AC3C0B" transform="translate(363,163)"/>
<path d="M0 0 C2.97 0 5.94 0 9 0 C10.31225809 3.93677426 9.3393954 5.7794262 8.0625 9.6875 C7.68222656 10.86699219 7.30195313 12.04648438 6.91015625 13.26171875 C6.45962891 14.61716797 6.45962891 14.61716797 6 16 C5.67 16 5.34 16 5 16 C4.81548975 5.44191344 4.81548975 5.44191344 6 1 C4.02 1 2.04 1 0 1 C0 0.67 0 0.34 0 0 Z " fill="#BD6636" transform="translate(290,119)"/>
<path d="M0 0 C0.33 0 0.66 0 1 0 C1.16724111 4.96603713 1.32783783 9.93222678 1.48217773 14.89868164 C1.53567115 16.58949623 1.59100598 18.28025358 1.64819336 19.97094727 C1.72990041 22.39587047 1.80506395 24.82091994 1.87890625 27.24609375 C1.90594131 28.00651474 1.93297638 28.76693573 1.96083069 29.55039978 C2.01291299 31.36623334 2.01186585 33.18345843 2 35 C1 36 1 36 -1.5625 36.0625 C-2.366875 36.041875 -3.17125 36.02125 -4 36 C-3.2733313 35.4898938 -3.2733313 35.4898938 -2.53198242 34.96948242 C-0.25626814 32.04387492 -0.52050278 29.05009293 -0.48828125 25.48828125 C-0.47033005 24.76005661 -0.45237885 24.03183197 -0.43388367 23.28153992 C-0.37975787 20.95858529 -0.3458792 18.63583634 -0.3125 16.3125 C-0.27932875 14.73629949 -0.24483927 13.16012612 -0.20898438 11.58398438 C-0.1240307 7.72280464 -0.05723124 3.86168613 0 0 Z " fill="#90492B" transform="translate(401,188)"/>
<path d="M0 0 C0.66 0 1.32 0 2 0 C0.67224975 4.12525613 -0.85519085 6.10178139 -4.3125 8.6875 C-5.07175781 9.26886719 -5.83101563 9.85023438 -6.61328125 10.44921875 C-9.00925223 12.00601168 -11.3170634 13.03604225 -14 14 C-14 13.34 -14 12.68 -14 12 C-13.34 12 -12.68 12 -12 12 C-12 11.34 -12 10.68 -12 10 C-10.68 9.67 -9.36 9.34 -8 9 C-7.67 7.68 -7.34 6.36 -7 5 C-5.35 5 -3.7 5 -2 5 C-1.67 4.01 -1.34 3.02 -1 2 C-0.67 1.34 -0.34 0.68 0 0 Z " fill="#9A5946" transform="translate(311,218)"/>
<path d="M0 0 C0.99 0 1.98 0 3 0 C2.34 1.98 1.68 3.96 1 6 C1.66 6 2.32 6 3 6 C2.67 7.65 2.34 9.3 2 11 C0.68 11 -0.64 11 -2 11 C-2 10.01 -2 9.02 -2 8 C-2.66 8 -3.32 8 -4 8 C-4 7.01 -4 6.02 -4 5 C-3.01 5 -2.02 5 -1 5 C-0.67 3.35 -0.34 1.7 0 0 Z " fill="#8B2606" transform="translate(324,213)"/>
<path d="M0 0 C3.3125 0.125 3.3125 0.125 7 1 C8.8125 3.8125 8.8125 3.8125 10 7 C10.391875 7.7425 10.78375 8.485 11.1875 9.25 C12 11 12 11 12 13 C11.34 13 10.68 13 10 13 C8.88671875 11.42578125 8.88671875 11.42578125 7.6875 9.3125 C5.48392751 5.62020442 3.16489182 2.89361538 0 0 Z " fill="#AD5426" transform="translate(374,91)"/>
<path d="M0 0 C-0.99 0.495 -0.99 0.495 -2 1 C-1.67 1.66 -1.34 2.32 -1 3 C-0.92934383 5.04055005 -0.91578024 7.08334257 -0.9375 9.125 C-0.94652344 10.22070312 -0.95554687 11.31640625 -0.96484375 12.4453125 C-0.97644531 13.28835937 -0.98804688 14.13140625 -1 15 C-1.33 15 -1.66 15 -2 15 C-2.33 13.02 -2.66 11.04 -3 9 C-3.33 9 -3.66 9 -4 9 C-4.33 6.36 -4.66 3.72 -5 1 C-5.99 0.67 -6.98 0.34 -8 0 C-4.71023192 -1.09658936 -3.28696233 -0.79953138 0 0 Z " fill="#D18E70" transform="translate(388,168)"/>
<path d="M0 0 C-0.3125 1.9375 -0.3125 1.9375 -1 4 C-1.99 4.33 -2.98 4.66 -4 5 C-4 4.34 -4 3.68 -4 3 C-4.99 3.33 -5.98 3.66 -7 4 C-7 3.34 -7 2.68 -7 2 C-8.32 2.33 -9.64 2.66 -11 3 C-8.59404283 -1.81191435 -4.65715828 -1.05844506 0 0 Z " fill="#BA5221" transform="translate(370,161)"/>
<path d="M0 0 C0.99 0 1.98 0 3 0 C1.43636055 3.65415742 -0.82175042 6.2119688 -3.5 9.125 C-4.2940625 9.99382812 -5.088125 10.86265625 -5.90625 11.7578125 C-7.24743753 13.19408422 -8.61045683 14.61045683 -10 16 C-9.87643471 11.9223453 -8.38059367 10.15035366 -5.5625 7.4375 C-4.94503906 6.87933594 -4.32757813 6.32117188 -3.69140625 5.74609375 C-1.9403128 3.93838296 -0.99925123 2.29476288 0 0 Z " fill="#C14509" transform="translate(337,94)"/>
<path d="M0 0 C0.33 0 0.66 0 1 0 C1.37952295 6.19887485 0.8352113 10.4477112 -2 16 C-2.66 16 -3.32 16 -4 16 C-2.98408579 10.53135543 -1.92908943 5.23609987 0 0 Z " fill="#BB6C46" transform="translate(332,141)"/>
<path d="M0 0 C1.15941038 3.47823115 0.70820884 5.45895578 0 9 C-0.99 9.33 -1.98 9.66 -3 10 C-4.70884005 8.37660195 -6.37446717 6.70680947 -8 5 C-8 4.34 -8 3.68 -8 3 C-6.35 3 -4.7 3 -3 3 C-2.67 4.32 -2.34 5.64 -2 7 C-1.34 4.69 -0.68 2.38 0 0 Z " fill="#8B441D" transform="translate(350,119)"/>
<path d="M0 0 C0 0.66 0 1.32 0 2 C-1.65 2.33 -3.3 2.66 -5 3 C-5 3.33 -5 3.66 -5 4 C-8.96 3.67 -12.92 3.34 -17 3 C-17 2.67 -17 2.34 -17 2 C-15.10507994 1.66151348 -13.20901534 1.32943089 -11.3125 1 C-9.72888672 0.7215625 -9.72888672 0.7215625 -8.11328125 0.4375 C-5.35095938 0.04931926 -2.78257957 -0.08259976 0 0 Z " fill="#C57D57" transform="translate(339,83)"/>
<path d="M0 0 C2.31 0.66 4.62 1.32 7 2 C6.01 2.66 5.02 3.32 4 4 C2.79549696 6.55183404 2.79549696 6.55183404 2 9 C1.34 9 0.68 9 0 9 C-0.66 7.35 -1.32 5.7 -2 4 C-1.01 3.67 -0.02 3.34 1 3 C0.67 2.01 0.34 1.02 0 0 Z " fill="#BC5123" transform="translate(386,162)"/>
<path d="M0 0 C0.33 0 0.66 0 1 0 C1 2.31 1 4.62 1 7 C5.455 7.99 5.455 7.99 10 9 C10 9.66 10 10.32 10 11 C6.75 11.3125 6.75 11.3125 3 11 C0.5 8.875 0.5 8.875 -1 6 C-0.75 2.6875 -0.75 2.6875 0 0 Z " fill="#AA613B" transform="translate(384,134)"/>
<path d="M0 0 C1.98 0 3.96 0 6 0 C5.01 0.495 5.01 0.495 4 1 C4 1.99 4 2.98 4 4 C4.66 4.33 5.32 4.66 6 5 C6 5.66 6 6.32 6 7 C3.03 6.505 3.03 6.505 0 6 C0 4.02 0 2.04 0 0 Z " fill="#BF4306" transform="translate(314,89)"/>
<path d="M0 0 C0 0.99 0 1.98 0 3 C-0.66 3 -1.32 3 -2 3 C-2.33 3.66 -2.66 4.32 -3 5 C-3.99 4.34 -4.98 3.68 -6 3 C-8.28648848 2.75892674 -8.28648848 2.75892674 -10.6875 2.875 C-11.49574219 2.89304687 -12.30398438 2.91109375 -13.13671875 2.9296875 C-13.75160156 2.95289062 -14.36648438 2.97609375 -15 3 C-15 2.34 -15 1.68 -15 1 C-13.43784452 0.83013455 -11.8752548 0.66426036 -10.3125 0.5 C-9.44238281 0.4071875 -8.57226562 0.314375 -7.67578125 0.21875 C-5.10276661 0.00840136 -2.58015636 -0.03719144 0 0 Z " fill="#AC5025" transform="translate(354,81)"/>
<path d="M0 0 C0.33 0.99 0.66 1.98 1 3 C0.01 3.99 -0.98 4.98 -2 6 C0.97 6.33 3.94 6.66 7 7 C7 7.33 7 7.66 7 8 C2.38 8 -2.24 8 -7 8 C-6.01 6.68 -5.02 5.36 -4 4 C-3.34 4 -2.68 4 -2 4 C-1.34 2.68 -0.68 1.36 0 0 Z " fill="#8E4F3B" transform="translate(313,227)"/>
<path d="M0 0 C2.475 0.495 2.475 0.495 5 1 C4.01 1.495 4.01 1.495 3 2 C3 5.3 3 8.6 3 12 C2.67 11.01 2.34 10.02 2 9 C1.34 9 0.68 9 0 9 C0 6.03 0 3.06 0 0 Z " fill="#9F3406" transform="translate(373,175)"/>
<path d="M0 0 C1.18771723 3.42943519 0.80226223 5.37784675 -0.4375 8.75 C-0.86869141 9.94882813 -0.86869141 9.94882813 -1.30859375 11.171875 C-1.53675781 11.77515625 -1.76492188 12.3784375 -2 13 C-2.66 13 -3.32 13 -4 13 C-3.55966813 7.80408388 -3.11696661 4.33664919 0 0 Z " fill="#B56038" transform="translate(304,127)"/>
<path d="M0 0 C1.670625 0.061875 1.670625 0.061875 3.375 0.125 C3.375 0.455 3.375 0.785 3.375 1.125 C1.395 1.125 -0.585 1.125 -2.625 1.125 C-2.625 1.785 -2.625 2.445 -2.625 3.125 C-3.285 3.125 -3.945 3.125 -4.625 3.125 C-4.14015724 7.77086892 -4.14015724 7.77086892 -2.625 12.125 C-3.945 12.125 -5.265 12.125 -6.625 12.125 C-6.51101335 10.49919034 -6.38344341 8.87432843 -6.25 7.25 C-6.18039062 6.34507813 -6.11078125 5.44015625 -6.0390625 4.5078125 C-5.3225529 0.38450253 -4.08739798 0.14094476 0 0 Z " fill="#C5836F" transform="translate(365.625,78.875)"/>
<path d="M0 0 C2.43834431 4.87668861 3.21493693 6.96763859 2.0625 12.1875 C1.86785156 13.08855469 1.67320312 13.98960937 1.47265625 14.91796875 C1.23869141 15.94857422 1.23869141 15.94857422 1 17 C0.67 17 0.34 17 0 17 C0 11.39 0 5.78 0 0 Z " fill="#8A2203" transform="translate(431,206)"/>
<path d="M0 0 C1.65 0 3.3 0 5 0 C1.53056617 3.06126514 -1.40566935 5.12023456 -6 6 C-7.32 5.01 -8.64 4.02 -10 3 C-6.7 2.67 -3.4 2.34 0 2 C0 1.34 0 0.68 0 0 Z " fill="#A4684C" transform="translate(379,190)"/>
<path d="M0 0 C0.99 0.495 0.99 0.495 2 1 C3.33350067 5.44500224 4.29175731 9.3318831 4 14 C3.01 14.495 3.01 14.495 2 15 C0.2520497 9.75614911 -0.19392201 5.52677733 0 0 Z " fill="#B45C34" transform="translate(394,127)"/>
<path d="M0 0 C4.00653305 0.6163897 6.80463901 2.58572726 10 5 C10.33 5.99 10.66 6.98 11 8 C9.35 7.67 7.7 7.34 6 7 C6 6.34 6 5.68 6 5 C5.01 5 4.02 5 3 5 C2.67 4.01 2.34 3.02 2 2 C1.34 1.34 0.68 0.68 0 0 Z " fill="#BB744E" transform="translate(377,82)"/>
<path d="M0 0 C1.58367747 0.14204741 3.16693318 0.28880153 4.75 0.4375 C5.63171875 0.51871094 6.5134375 0.59992188 7.421875 0.68359375 C9.69350452 0.96238465 11.79851823 1.38790577 14 2 C8.83430559 3.79217969 5.48946087 4.12029814 0 3 C0 2.01 0 1.02 0 0 Z " fill="#8C4A30" transform="translate(270,209)"/>
<path d="M0 0 C0.66 0 1.32 0 2 0 C2.08121924 1.60332791 2.13929134 3.20784026 2.1875 4.8125 C2.23970703 6.15248047 2.23970703 6.15248047 2.29296875 7.51953125 C2 10 2 10 -1 13 C-0.67 8.71 -0.34 4.42 0 0 Z " fill="#842106" transform="translate(326,199)"/>
<path d="M0 0 C1.32 0.66 2.64 1.32 4 2 C4 2.99 4 3.98 4 5 C4.66 5.66 5.32 6.32 6 7 C4.1875 7.6875 4.1875 7.6875 2 8 C0.1875 6.875 0.1875 6.875 -1 5 C-0.6875 2.3125 -0.6875 2.3125 0 0 Z " fill="#B45329" transform="translate(365,167)"/>
<path d="M0 0 C0.33 0 0.66 0 1 0 C1.16682272 4.92127034 1.24828052 8.50343896 -1 13 C-1.99 12.67 -2.98 12.34 -4 12 C-2.68 8.04 -1.36 4.08 0 0 Z " fill="#9B5E4B" transform="translate(324,205)"/>
<path d="M0 0 C0.99 0 1.98 0 3 0 C5 3 5 3 5 7 C5.66 7.33 6.32 7.66 7 8 C5.68 8.99 4.36 9.98 3 11 C2.87625 9.9275 2.7525 8.855 2.625 7.75 C2.10356064 4.62136385 1.59911746 2.66519576 0 0 Z " fill="#B63D08" transform="translate(400,184)"/>
<path d="M0 0 C0.66 0.33 1.32 0.66 2 1 C1.34 5.29 0.68 9.58 0 14 C-0.66 13.67 -1.32 13.34 -2 13 C-1.85851011 11.3954444 -1.71164314 9.79136233 -1.5625 8.1875 C-1.48128906 7.29417969 -1.40007812 6.40085938 -1.31640625 5.48046875 C-1 3 -1 3 0 0 Z " fill="#9B4B24" transform="translate(299,139)"/>
<path d="M0 0 C0.33 0 0.66 0 1 0 C0.40546697 10.55808656 0.40546697 10.55808656 -3 15 C-4.28497537 11.14507389 -3.4052209 9.59653164 -2.0625 5.8125 C-1.68222656 4.72582031 -1.30195313 3.63914063 -0.91015625 2.51953125 C-0.60980469 1.68808594 -0.30945313 0.85664063 0 0 Z " fill="#B83E03" transform="translate(304,131)"/>
<path d="M0 0 C1.27162597 3.8148779 0.64661571 5.3931275 -1 9 C-2.32 9.33 -3.64 9.66 -5 10 C-3.35 6.7 -1.7 3.4 0 0 Z " fill="#BA5B3A" transform="translate(310,113)"/>
<path d="M0 0 C0.66 1.32 1.32 2.64 2 4 C-0.57213134 5.61949011 -1.67669159 6.04408751 -4.75 5.625 C-5.4925 5.41875 -6.235 5.2125 -7 5 C-4.702779 3.25728062 -2.40133271 1.60088848 0 0 Z " fill="#923E1F" transform="translate(430,228)"/>
<path d="M0 0 C0.66 0.33 1.32 0.66 2 1 C2 2.32 2 3.64 2 5 C-0.31 5 -2.62 5 -5 5 C-4.1875 3.0625 -4.1875 3.0625 -3 1 C-2.01 0.67 -1.02 0.34 0 0 Z " fill="#992902" transform="translate(318,228)"/>
<path d="M0 0 C1.32 0 2.64 0 4 0 C4 0.99 4 1.98 4 3 C4.99 3 5.98 3 7 3 C6.67 3.99 6.34 4.98 6 6 C5.01 5.67 4.02 5.34 3 5 C3 4.34 3 3.68 3 3 C1.35 3 -0.3 3 -2 3 C-1.34 2.01 -0.68 1.02 0 0 Z " fill="#8E2607" transform="translate(266,209)"/>
<path d="M0 0 C0.33 0 0.66 0 1 0 C1 1.98 1 3.96 1 6 C-0.65 6.66 -2.3 7.32 -4 8 C-4 6.35 -4 4.7 -4 3 C-3.34 2.67 -2.68 2.34 -2 2 C-2 2.66 -2 3.32 -2 4 C-1.34 4 -0.68 4 0 4 C0 2.68 0 1.36 0 0 Z " fill="#9E4E2B" transform="translate(383,172)"/>
<path d="M0 0 C1.65 0 3.3 0 5 0 C5 1.65 5 3.3 5 5 C2 5 2 5 0 4 C0 2.68 0 1.36 0 0 Z " fill="#B9410D" transform="translate(373,159)"/>
<path d="M0 0 C1.79408332 0.6180287 3.58520478 1.24466081 5.375 1.875 C6.87160156 2.39707031 6.87160156 2.39707031 8.3984375 2.9296875 C11 4 11 4 13 6 C11.68 6.33 10.36 6.66 9 7 C8.67 6.01 8.34 5.02 8 4 C4.7 3.34 1.4 2.68 -2 2 C-1.34 1.34 -0.68 0.68 0 0 Z " fill="#AB6649" transform="translate(373,156)"/>
<path d="M0 0 C0.33 0 0.66 0 1 0 C2.31626692 3.61973402 3 6.09567131 3 10 C1.68 10.33 0.36 10.66 -1 11 C-1.33 10.34 -1.66 9.68 -2 9 C-1.01 9 -0.02 9 1 9 C0.65555119 6.52733235 0.65555119 6.52733235 0 4 C-0.66 3.67 -1.32 3.34 -2 3 C-1.34 2.01 -0.68 1.02 0 0 Z " fill="#C14103" transform="translate(419,133)"/>
<path d="M0 0 C1.78409802 3.06246747 2.22880021 5.22079273 2.125 8.75 C2.10695313 9.54921875 2.08890625 10.3484375 2.0703125 11.171875 C2.04710937 11.77515625 2.02390625 12.3784375 2 13 C-0.4851924 9.2722114 -1.38440535 6.08677188 -0.5625 1.625 C-0.376875 1.08875 -0.19125 0.5525 0 0 Z " fill="#B15F33" transform="translate(394,101)"/>
<path d="M0 0 C0.99 0.66 1.98 1.32 3 2 C0.03 4.31 -2.94 6.62 -6 9 C-6.33 8.34 -6.66 7.68 -7 7 C-6.34 6.38125 -5.68 5.7625 -5 5.125 C-2.7715451 3.24362573 -2.7715451 3.24362573 -3 1 C-2.01 0.67 -1.02 0.34 0 0 Z " fill="#C7460A" transform="translate(348,84)"/>
<path d="M0 0 C0.66 0.33 1.32 0.66 2 1 C2 3.97 2 6.94 2 10 C1.01 10.33 0.02 10.66 -1 11 C-2.60080151 6.99799622 -1.29279692 3.95443764 0 0 Z " fill="#B14023" transform="translate(357,118)"/>
<path d="M0 0 C0.66 0 1.32 0 2 0 C3.17571451 3.67410785 3.07366746 7.16929183 3 11 C2.67 9.68 2.34 8.36 2 7 C1.34 7 0.68 7 0 7 C0 4.69 0 2.38 0 0 Z " fill="#923A1D" transform="translate(430,199)"/>
<path d="M0 0 C0.33 0 0.66 0 1 0 C1.33 3.63 1.66 7.26 2 11 C1.34 11 0.68 11 0 11 C-1.49297212 8.01405576 -1.11755228 5.29146376 -1 2 C-0.67 1.34 -0.34 0.68 0 0 Z " fill="#A96C53" transform="translate(430,188)"/>
<path d="M0 0 C0.93423645 3.01031744 1.04449911 3.86650268 0 7 C-1.65 7 -3.3 7 -5 7 C-4.505 6.566875 -4.01 6.13375 -3.5 5.6875 C-1.66781808 4.00259517 -1.66781808 4.00259517 -2 1 C-1.34 0.67 -0.68 0.34 0 0 Z " fill="#962903" transform="translate(309,216)"/>
<path d="M0 0 C2.4375 0.375 2.4375 0.375 5 1 C5.33 1.66 5.66 2.32 6 3 C4.35 4.32 2.7 5.64 1 7 C0.67 4.69 0.34 2.38 0 0 Z " fill="#812203" transform="translate(244,213)"/>
<path d="M0 0 C0.33 0.99 0.66 1.98 1 3 C-0.40445835 5.2636564 -2.1967913 7.0208685 -4 9 C-4.99 8.67 -5.98 8.34 -7 8 C-4.69 5.36 -2.38 2.72 0 0 Z " fill="#A56252" transform="translate(252,204)"/>
<path d="M0 0 C0.33 0.99 0.66 1.98 1 3 C0.01 3.66 -0.98 4.32 -2 5 C-3.32 4.34 -4.64 3.68 -6 3 C-5.67 2.34 -5.34 1.68 -5 1 C-2.4375 0.375 -2.4375 0.375 0 0 Z " fill="#AE3405" transform="translate(377,187)"/>
<path d="M0 0 C0.66 0.66 1.32 1.32 2 2 C1.96712417 4.72869407 1.43602229 7.2966618 1 10 C-0.5625 8.3125 -0.5625 8.3125 -2 6 C-1.58974359 1.58974359 -1.58974359 1.58974359 0 0 Z " fill="#8A2405" transform="translate(324,137)"/>
<path d="M0 0 C0.99 0.33 1.98 0.66 3 1 C1.515 4.465 1.515 4.465 0 8 C-0.66 8 -1.32 8 -2 8 C-2.20086443 4.28400809 -2.1519437 3.22791555 0 0 Z " fill="#874632" transform="translate(333,121)"/>
<path d="M0 0 C2.97 0.495 2.97 0.495 6 1 C5.67 3.31 5.34 5.62 5 8 C4.34 7.67 3.68 7.34 3 7 C2.64587656 5.67203709 2.31478446 4.33783393 2 3 C1.34 2.01 0.68 1.02 0 0 Z " fill="#AB5524" transform="translate(314,95)"/>
<path d="M0 0 C-0.33 1.65 -0.66 3.3 -1 5 C-2.32 5 -3.64 5 -5 5 C-5 3.68 -5 2.36 -5 1 C-2 0 -2 0 0 0 Z " fill="#972A01" transform="translate(327,219)"/>
<path d="M0 0 C2.31 0.66 4.62 1.32 7 2 C7 2.66 7 3.32 7 4 C4.69 4 2.38 4 0 4 C0 2.68 0 1.36 0 0 Z " fill="#963A1B" transform="translate(379,186)"/>
<path d="M0 0 C2.31 0 4.62 0 7 0 C7 1.65 7 3.3 7 5 C6.01 4.67 5.02 4.34 4 4 C4.66 4 5.32 4 6 4 C6 3.34 6 2.68 6 2 C4.68 2.33 3.36 2.66 2 3 C1.34 2.01 0.68 1.02 0 0 Z " fill="#C42505" transform="translate(370,168)"/>
<path d="M0 0 C0 0.99 0 1.98 0 3 C-2.97 3 -5.94 3 -9 3 C-9 2.34 -9 1.68 -9 1 C-5.92677456 0.08941469 -3.19902639 -0.08886184 0 0 Z " fill="#C35420" transform="translate(374,80)"/>
<path d="M0 0 C0.99 0 1.98 0 3 0 C3 1.32 3 2.64 3 4 C2.34 4 1.68 4 1 4 C1 5.98 1 7.96 1 10 C0.67 10 0.34 10 0 10 C0 6.7 0 3.4 0 0 Z " fill="#963E30" transform="translate(325,195)"/>
<path d="M0 0 C1.32 0.33 2.64 0.66 4 1 C4.33 2.32 4.66 3.64 5 5 C3.35 4.67 1.7 4.34 0 4 C0 2.68 0 1.36 0 0 Z " fill="#A13610" transform="translate(368,169)"/>
<path d="M0 0 C2 3.75 2 3.75 2 6 C1.01 6.33 0.02 6.66 -1 7 C-1.66 6.67 -2.32 6.34 -3 6 C-2 4 -1 2 0 0 Z " fill="#A53001" transform="translate(364,166)"/>
<path d="M0 0 C-3.4352048 2.29013653 -4.985331 2.17842973 -9 2 C-8 0 -8 0 -6.1875 -0.6875 C-3.81180233 -1.02688538 -2.26664171 -0.72856341 0 0 Z " fill="#9E3106" transform="translate(389,186)"/>
<path d="M0 0 C0 1.98 0 3.96 0 6 C-0.99 6 -1.98 6 -3 6 C-3 4.35 -3 2.7 -3 1 C-1 0 -1 0 0 0 Z " fill="#A43D0A" transform="translate(331,156)"/>
<path d="M0 0 C0.66 0.66 1.32 1.32 2 2 C1.9765625 4.1640625 1.9765625 4.1640625 1.625 6.625 C1.51414062 7.44226563 1.40328125 8.25953125 1.2890625 9.1015625 C1.19367188 9.72804687 1.09828125 10.35453125 1 11 C0.67 11 0.34 11 0 11 C-0.19491452 9.54263913 -0.38069358 8.08405407 -0.5625 6.625 C-0.66691406 5.81289062 -0.77132813 5.00078125 -0.87890625 4.1640625 C-1 2 -1 2 0 0 Z " fill="#9B442B" transform="translate(321,151)"/>
<path d="M0 0 C0.33 1.32 0.66 2.64 1 4 C3.97 4.495 3.97 4.495 7 5 C4 7 4 7 1 7 C0.67 4.69 0.34 2.38 0 0 Z " fill="#BA3C06" transform="translate(398,123)"/>
</svg>
